<?xml version="1.0" standalone="no"?>
<!DOCTYPE svg PUBLIC "-//W3C//DTD SVG 20010904//EN"
 "http://www.w3.org/TR/2001/REC-SVG-20010904/DTD/svg10.dtd">
<svg version="1.0" xmlns="http://www.w3.org/2000/svg"
 width="1000.000000pt" height="1000.000000pt" viewBox="0 0 1000.000000 1000.000000"
 preserveAspectRatio="xMidYMid meet">
<metadata>
Created by potrace 1.11, written by Peter Selinger 2001-2013
</metadata>
<g transform="translate(0.000000,1000.000000) scale(0.100000,-0.100000)"
fill="#000000" stroke="none">
<path d="M4765 9237 c-122 -69 -140 -236 -35 -331 79 -71 187 -73 267 -3 112
98 92 271 -39 338 -53 27 -141 25 -193 -4z"/>
<path d="M5925 8826 c-71 -32 -125 -115 -125 -191 0 -115 112 -215 226 -202
105 11 176 85 182 190 7 121 -71 208 -191 214 -38 2 -74 -2 -92 -11z"/>
<path d="M4918 8766 c-34 -7 -48 -14 -48 -26 0 -40 73 -640 95 -782 63 -404
116 -583 332 -1108 215 -521 282 -740 329 -1075 22 -159 21 -290 -4 -650 -52
-738 -84 -1504 -103 -2470 -13 -696 -9 -1052 15 -1173 34 -170 119 -354 234
-508 88 -119 280 -308 427 -422 131 -102 467 -332 484 -332 11 0 67 78 60 84
-2 1 -85 57 -184 124 -446 300 -684 534 -820 807 -30 61 -67 155 -83 210 l-27
100 1 640 c1 613 16 1329 34 1595 7 103 16 149 50 260 147 479 388 924 709
1310 111 134 324 347 439 440 45 36 81 67 81 70 0 3 -15 23 -33 44 l-34 39
-93 -78 c-120 -101 -334 -314 -430 -430 -267 -320 -469 -653 -624 -1030 l-45
-110 5 90 c3 50 12 209 20 355 21 371 51 791 81 1155 29 355 27 347 141 519
77 116 225 268 363 376 52 40 232 164 400 275 334 221 443 304 518 397 50 60
103 157 116 211 6 25 4 27 -26 27 -18 0 -42 3 -53 6 -17 4 -23 -2 -34 -33 -48
-138 -161 -239 -565 -507 -176 -117 -362 -245 -413 -284 -122 -95 -256 -224
-328 -316 -33 -41 -61 -73 -63 -71 -2 2 1 59 8 127 16 174 168 1635 175 1680
l5 36 -53 4 c-28 2 -53 4 -54 3 -6 -3 -163 -1519 -203 -1949 -16 -181 -31
-331 -33 -332 -2 -2 -11 31 -21 74 -27 115 -115 375 -191 562 -262 642 -283
701 -339 940 -49 214 -80 411 -122 779 -19 174 -38 325 -42 336 -6 18 -12 19
-54 11z"/>
<path d="M4110 8529 c-47 -19 -100 -81 -116 -135 -43 -149 96 -294 243 -255
97 26 156 102 156 200 0 83 -47 156 -120 187 -37 16 -126 17 -163 3z"/>
<path d="M7219 8177 c-117 -62 -144 -214 -56 -314 84 -95 220 -95 304 0 117
133 25 337 -152 337 -35 0 -66 -8 -96 -23z"/>
<path d="M4085 7914 c-17 -314 26 -758 104 -1079 16 -63 27 -115 26 -115 -2 0
-35 49 -73 108 -87 134 -194 323 -240 422 -20 41 -36 76 -38 78 -4 6 -94 -42
-94 -50 0 -19 108 -222 193 -363 103 -172 190 -300 435 -644 209 -292 313
-452 386 -595 112 -218 190 -464 206 -651 70 -806 163 -3211 147 -3793 -5
-214 -19 -277 -90 -419 -62 -124 -149 -233 -313 -392 l-147 -142 36 -36 36
-36 58 49 c264 223 435 463 501 701 l27 98 -2 417 c-4 1148 -98 3154 -203
4353 -5 61 -10 113 -10 118 0 4 -22 7 -49 7 -28 0 -52 -3 -54 -7 -3 -5 1 -78
9 -163 7 -85 13 -164 14 -175 0 -10 -28 37 -63 105 -73 144 -148 266 -280 452
-51 73 -108 153 -125 178 -66 94 -180 447 -226 700 -47 256 -60 415 -61 717 0
245 -2 283 -15 283 -8 0 -31 3 -51 6 l-37 6 -7 -138z"/>
<path d="M3593 7756 c-71 -33 -106 -87 -111 -170 -8 -131 82 -223 213 -214
178 11 255 214 131 344 -65 67 -145 81 -233 40z"/>
<path d="M2737 7515 c-54 -14 -112 -62 -133 -112 -18 -41 -18 -124 0 -166 30
-73 104 -121 186 -121 165 0 259 167 174 311 -44 76 -136 112 -227 88z"/>
<path d="M2809 7023 l-36 -4 9 -57 c53 -338 253 -789 531 -1197 42 -60 74
-111 73 -112 -1 -2 -31 9 -67 22 -152 60 -456 135 -610 151 l-66 6 -6 -48 c-6
-53 1 -64 44 -64 50 0 256 -41 384 -76 643 -177 1211 -601 1558 -1162 l55 -89
21 -199 c90 -848 139 -1696 142 -2424 1 -302 1 -307 -24 -377 -85 -245 -367
-453 -967 -715 -63 -27 -116 -51 -118 -52 -4 -5 37 -96 43 -96 3 0 94 39 201
87 351 155 579 292 734 440 104 99 172 195 209 296 24 69 26 83 29 317 6 377
-22 1101 -64 1670 -40 548 -91 1031 -183 1725 l-6 50 -50 -3 c-27 -2 -52 -5
-54 -7 -2 -2 10 -105 26 -227 17 -123 30 -224 29 -225 -1 -1 -41 49 -89 112
-226 292 -518 545 -838 725 -100 56 -122 74 -166 130 -355 459 -596 955 -668
1373 -4 27 -11 37 -23 35 -9 -1 -33 -3 -53 -5z"/>
<path d="M7090 6291 c-116 -37 -180 -141 -151 -248 50 -188 294 -214 382 -42
21 42 25 121 8 166 -12 33 -64 89 -99 108 -33 17 -109 26 -140 16z"/>
<path d="M2295 6018 c-86 -18 -155 -106 -155 -198 0 -67 18 -107 68 -152 83
-75 198 -73 276 5 70 71 83 150 39 238 -44 86 -132 128 -228 107z"/>
</g>
</svg>
